<svg width="699" height="176" viewBox="0 0 699 176" fill="none" xmlns="http://www.w3.org/2000/svg">
<g clip-path="url(#clip0_9101_66433)">
<rect width="699" height="176" fill="#F4EBFE" style="fill:#F4EBFE;fill:color(display-p3 0.9569 0.9216 0.9961);fill-opacity:1;"/>
<path d="M479 0H523V44H479V0Z" fill="#F4EBFE" style="fill:#F4EBFE;fill:color(display-p3 0.9569 0.9216 0.9961);fill-opacity:1;"/>
<path d="M523 44V44.5H523.5V44H523ZM479 44H478.5V44.5H479V44ZM523 0H522.5V44H523H523.5V0H523ZM523 44V43.5H479V44V44.5H523V44ZM479 44H479.5V0H479H478.5V44H479Z" fill="#3E0080" style="fill:#3E0080;fill:color(display-p3 0.2426 0.0000 0.5020);fill-opacity:1;"/>
<rect x="479" y="44" width="44" height="44" fill="#DA9DFD" stroke="#3E0080" style="fill:#DA9DFD;fill:color(display-p3 0.8549 0.6157 0.9922);fill-opacity:1;stroke:#3E0080;stroke:color(display-p3 0.2426 0.0000 0.5020);stroke-opacity:1;"/>
<rect x="523" y="44" width="44" height="44" fill="#A900F4" stroke="#3E0080" style="fill:#A900F4;fill:color(display-p3 0.6628 0.0000 0.9553);fill-opacity:1;stroke:#3E0080;stroke:color(display-p3 0.2426 0.0000 0.5020);stroke-opacity:1;"/>
<rect x="391" y="44" width="44" height="44" fill="#A900F4" stroke="#3E0080" style="fill:#A900F4;fill:color(display-p3 0.6628 0.0000 0.9553);fill-opacity:1;stroke:#3E0080;stroke:color(display-p3 0.2426 0.0000 0.5020);stroke-opacity:1;"/>
<path d="M303 0H347V44H303V0Z" fill="#DA9DFD" style="fill:#DA9DFD;fill:color(display-p3 0.8549 0.6157 0.9922);fill-opacity:1;"/>
<path d="M347 44V44.5H347.5V44H347ZM303 44H302.5V44.5H303V44ZM347 0H346.5V44H347H347.5V0H347ZM347 44V43.5H303V44V44.5H347V44ZM303 44H303.5V0H303H302.5V44H303Z" fill="#3E0080" style="fill:#3E0080;fill:color(display-p3 0.2426 0.0000 0.5020);fill-opacity:1;"/>
<rect x="567" y="44" width="44" height="44" stroke="#3E0080" style="stroke:#3E0080;stroke:color(display-p3 0.2426 0.0000 0.5020);stroke-opacity:1;"/>
<path d="M479 132V131.5H478.5V132H479ZM523 132H523.5V131.5H523V132ZM479 132V132.5H523V132V131.5H479V132ZM523 132H522.5V176H523H523.5V132H523ZM479 176H479.5V132H479H478.5V176H479Z" fill="#3E0080" style="fill:#3E0080;fill:color(display-p3 0.2426 0.0000 0.5020);fill-opacity:1;"/>
<path d="M611 0H655V44H611V0Z" fill="#DA9DFD" style="fill:#DA9DFD;fill:color(display-p3 0.8549 0.6157 0.9922);fill-opacity:1;"/>
<path d="M655 44V44.5H655.5V44H655ZM611 44H610.5V44.5H611V44ZM655 0H654.5V44H655H655.5V0H655ZM655 44V43.5H611V44V44.5H655V44ZM611 44H611.5V0H611H610.5V44H611Z" fill="#3E0080" style="fill:#3E0080;fill:color(display-p3 0.2426 0.0000 0.5020);fill-opacity:1;"/>
<rect x="611" y="88" width="44" height="44" fill="#DA9DFD" stroke="#3E0080" style="fill:#DA9DFD;fill:color(display-p3 0.8549 0.6157 0.9922);fill-opacity:1;stroke:#3E0080;stroke:color(display-p3 0.2426 0.0000 0.5020);stroke-opacity:1;"/>
<path d="M611 132H655V176H611V132Z" fill="#DA9DFD" style="fill:#DA9DFD;fill:color(display-p3 0.8549 0.6157 0.9922);fill-opacity:1;"/>
<path d="M611 132V131.5H610.5V132H611ZM655 132H655.5V131.5H655V132ZM611 132V132.5H655V132V131.5H611V132ZM655 132H654.5V176H655H655.5V132H655ZM611 176H611.5V132H611H610.5V176H611Z" fill="#3E0080" style="fill:#3E0080;fill:color(display-p3 0.2426 0.0000 0.5020);fill-opacity:1;"/>
<path d="M655 88H699V132H655V88Z" fill="#A900F4" style="fill:#A900F4;fill:color(display-p3 0.6628 0.0000 0.9553);fill-opacity:1;"/>
<path d="M655 88V87.5H654.5V88H655ZM655 132H654.5V132.5H655V132ZM655 88V88.5H699V88V87.5H655V88ZM699 132V131.5H655V132V132.5H699V132ZM655 132H655.5V88H655H654.5V132H655Z" fill="#3E0080" style="fill:#3E0080;fill:color(display-p3 0.2426 0.0000 0.5020);fill-opacity:1;"/>
<path d="M303.607 43.8752L263.462 37.125L247.41 38.5649L241.695 81.9423L281.84 88.6926L297.893 87.2547" fill="#DA9DFD" style="fill:#DA9DFD;fill:color(display-p3 0.8549 0.6157 0.9922);fill-opacity:1;"/>
<path d="M263.462 37.125L303.607 43.8752L287.553 45.3153L247.41 38.5649L263.462 37.125Z" fill="#A900F4" style="fill:#A900F4;fill:color(display-p3 0.6628 0.0000 0.9553);fill-opacity:1;"/>
<path d="M297.893 87.2545L281.84 88.6923L287.552 45.3151L303.606 43.875L297.893 87.2545Z" fill="#3E0080" style="fill:#3E0080;fill:color(display-p3 0.2426 0.0000 0.5020);fill-opacity:1;"/>
<path d="M303.607 43.8755L287.553 45.3156M247.41 38.5652L287.553 45.3156M281.841 88.6929L287.553 45.3156" stroke="white" style="stroke:white;stroke-opacity:1;" stroke-linejoin="round"/>
<path opacity="0.5" d="M263.462 37.125L257.747 80.5047M241.695 81.9423L257.747 80.5047M297.893 87.2548L257.747 80.5047" stroke="white" style="stroke:white;stroke-opacity:1;" stroke-linejoin="round" stroke-dasharray="4.1 4.1"/>
<path d="M447.579 12.819L409.382 26.5208L415.822 64.8041L434.891 79.3207L473.088 65.6189L466.648 27.3356L447.579 12.819Z" fill="#DA9DFD" style="fill:#DA9DFD;fill:color(display-p3 0.8549 0.6157 0.9922);fill-opacity:1;"/>
<path d="M454.042 51.1425L415.846 64.8443L415.821 64.8044L434.89 79.321L473.086 65.6193L454.042 51.1425Z" fill="#3E0080" style="fill:#3E0080;fill:color(display-p3 0.2426 0.0000 0.5020);fill-opacity:1;"/>
<path d="M454.043 51.1421L447.578 12.8191L466.647 27.3356L473.087 65.6189L454.043 51.1421Z" fill="#A900F4" style="fill:#A900F4;fill:color(display-p3 0.6628 0.0000 0.9553);fill-opacity:1;"/>
<path opacity="0.5" d="M466.672 27.3759L428.476 41.0777" stroke="white" style="stroke:white;stroke-opacity:1;" stroke-linejoin="round" stroke-dasharray="4.1 4.1"/>
<path opacity="0.5" d="M434.915 79.3607L428.475 41.0774L409.406 26.5608" stroke="white" style="stroke:white;stroke-opacity:1;" stroke-linejoin="round" stroke-dasharray="4.1 4.1"/>
<path d="M415.847 64.8448L454.044 51.1429" stroke="white" style="stroke:white;stroke-opacity:1;" stroke-linejoin="round"/>
<path d="M473.114 65.659L454.045 51.1424L447.605 12.8591" stroke="white" style="stroke:white;stroke-opacity:1;" stroke-linejoin="round"/>
<path d="M632.677 52.6403L627.667 94.6807L665.679 105.857L688.305 96.3884L693.315 54.3481L655.303 43.1713L632.677 52.6403Z" fill="#3E0080" style="fill:#3E0080;fill:color(display-p3 0.2426 0.0000 0.5020);fill-opacity:1;"/>
<path d="M632.677 52.6403L670.699 63.865L693.315 54.3481L655.303 43.1713L632.677 52.6403Z" fill="#DA9DFD" style="fill:#DA9DFD;fill:color(display-p3 0.8549 0.6157 0.9922);fill-opacity:1;"/>
<path d="M632.679 52.6407L670.701 63.8655L665.682 105.858L627.669 94.681L632.679 52.6407Z" fill="#A900F4" style="fill:#A900F4;fill:color(display-p3 0.6628 0.0000 0.9553);fill-opacity:1;"/>
<path opacity="0.5" d="M655.312 43.2202L650.303 85.2606" stroke="white" style="stroke:white;stroke-opacity:1;" stroke-linejoin="round" stroke-dasharray="4.1 4.1"/>
<path opacity="0.5" d="M688.315 96.4364L650.303 85.2596L627.677 94.7286" stroke="white" style="stroke:white;stroke-opacity:1;" stroke-linejoin="round" stroke-dasharray="4.1 4.1"/>
<path d="M665.689 105.906L670.699 63.866" stroke="white" style="stroke:white;stroke-opacity:1;" stroke-linejoin="round"/>
<path d="M693.327 54.3974L670.701 63.8664L632.688 52.6896" stroke="white" style="stroke:white;stroke-opacity:1;" stroke-linejoin="round"/>
<rect x="567" y="88" width="44" height="44" stroke="#3E0080" style="stroke:#3E0080;stroke:color(display-p3 0.2426 0.0000 0.5020);stroke-opacity:1;"/>
<mask id="mask0_9101_66433" style="mask-type:alpha" maskUnits="userSpaceOnUse" x="20" y="112" width="40" height="41">
<rect x="20" y="112.5" width="40" height="40" fill="url(#paint0_linear_9101_66433)"/>
<rect x="20" y="112.5" width="40" height="40" fill="url(#paint1_linear_9101_66433)"/>
<rect x="20" y="112.5" width="40" height="40" fill="url(#paint2_linear_9101_66433)"/>
</mask>
<g mask="url(#mask0_9101_66433)">
<path d="M31.2372 150.477C27.5256 148.666 24.5106 145.806 22.5158 142.205C20.5671 138.687 19.7252 134.719 20.0787 130.728C20.1587 129.834 20.9465 129.174 21.8411 129.253C22.734 129.333 23.3953 130.121 23.3164 131.016C23.0202 134.358 23.7266 137.683 25.3595 140.632C26.7652 143.17 28.7788 145.269 31.2364 146.774L38.8803 131.098C35.8883 130.102 33.3962 130.535 33.1719 130.579C33.139 130.586 33.1072 130.592 33.0748 130.598C32.3298 130.723 31.6092 130.316 31.3191 129.639C30.9187 128.891 29.7168 127.064 28.262 126.355C26.8072 125.645 24.5652 125.874 23.8434 126.031C23.2349 126.164 22.6015 125.937 22.2171 125.447C21.8328 124.958 21.7591 124.291 22.0319 123.731C26.8625 113.819 38.8587 109.688 48.7692 114.523C58.6796 119.357 62.8066 131.345 57.9844 141.254C57.9794 141.264 57.9745 141.274 57.969 141.285C53.13 151.186 41.1432 155.309 31.2372 150.477ZM41.8 132.522L34.1566 148.197C41.8711 151.079 50.6495 147.877 54.6637 140.6C54.0995 139.727 53.1094 138.475 51.9636 137.916C50.483 137.194 48.3137 137.43 47.5684 137.587C47.4457 137.616 47.3234 137.63 47.2005 137.631C46.9803 137.632 46.7568 137.589 46.5423 137.495C46.32 137.398 46.119 137.251 45.9567 137.062C45.864 136.953 45.7873 136.833 45.7257 136.706C45.6778 136.61 44.4924 134.31 41.7989 132.522L41.8 132.522ZM29.6859 123.432C30.9306 124.039 31.9435 125.005 32.701 125.915C35.0435 122.332 38.2225 119.625 40.6781 117.88C41.5907 117.232 42.5355 116.626 43.4454 116.104C37.0536 114.762 30.3547 117.295 26.4705 122.628C27.4986 122.698 28.6333 122.918 29.6859 123.432ZM50.8019 119.694C50.9502 120.733 51.0552 121.849 51.1059 122.969C51.2429 125.97 51.0694 130.128 49.6985 134.171C50.8419 134.202 52.1715 134.404 53.3881 134.997C54.4744 135.527 55.3851 136.329 56.1018 137.129C57.9316 130.773 55.8051 123.915 50.8013 119.695L50.8019 119.694ZM41.8112 128.792C44.0591 129.889 45.6839 131.348 46.7852 132.605C48.5768 126.784 47.7958 120.269 47.1436 117.856C44.8413 118.828 39.2269 122.222 35.7447 127.219C37.4153 127.312 39.5644 127.696 41.8112 128.792Z" fill="#3E0080" style="fill:#3E0080;fill:color(display-p3 0.2426 0.0000 0.5020);fill-opacity:1;"/>
</g>
<path d="M84.68 145.5V119.22H87.92V142.548H99.8V145.5H84.68ZM110.658 145.86C108.618 145.86 106.998 145.296 105.798 144.168C104.598 143.016 103.998 141.516 103.998 139.668C103.998 138.444 104.274 137.376 104.826 136.464C105.378 135.552 106.146 134.844 107.13 134.34C108.114 133.812 109.242 133.548 110.514 133.548H116.634V132C116.634 129.432 115.23 128.148 112.422 128.148C111.174 128.148 110.166 128.376 109.398 128.832C108.63 129.288 108.222 129.924 108.174 130.74H104.934C105.054 129.18 105.774 127.896 107.094 126.888C108.438 125.856 110.214 125.34 112.422 125.34C114.822 125.34 116.658 125.916 117.93 127.068C119.226 128.22 119.874 129.828 119.874 131.892V145.5H116.67V141.9H116.598C116.406 143.124 115.794 144.096 114.762 144.816C113.73 145.512 112.362 145.86 110.658 145.86ZM111.45 143.124C113.034 143.124 114.294 142.74 115.23 141.972C116.166 141.204 116.634 140.16 116.634 138.84V136.068H110.874C109.818 136.068 108.954 136.392 108.282 137.04C107.634 137.664 107.31 138.504 107.31 139.56C107.31 140.664 107.67 141.54 108.39 142.188C109.134 142.812 110.154 143.124 111.45 143.124ZM128.968 151.98V149.028H134.548C135.676 149.028 136.564 148.704 137.212 148.056C137.86 147.432 138.184 146.58 138.184 145.5V143.7L138.256 140.46H138.148C137.956 141.636 137.392 142.548 136.456 143.196C135.52 143.82 134.344 144.132 132.928 144.132C130.888 144.132 129.28 143.484 128.104 142.188C126.928 140.892 126.34 139.116 126.34 136.86V132.684C126.34 130.428 126.928 128.64 128.104 127.32C129.28 126 130.888 125.34 132.928 125.34C134.344 125.34 135.52 125.676 136.456 126.348C137.392 127.02 137.956 127.944 138.148 129.12H138.22V125.7H141.424V145.5C141.424 147.492 140.8 149.064 139.552 150.216C138.328 151.392 136.648 151.98 134.512 151.98H128.968ZM133.9 141.432C135.244 141.432 136.3 141.012 137.068 140.172C137.836 139.332 138.22 138.168 138.22 136.68V132.9C138.22 131.412 137.836 130.248 137.068 129.408C136.3 128.568 135.244 128.148 133.9 128.148C132.532 128.148 131.464 128.544 130.696 129.336C129.952 130.128 129.58 131.196 129.58 132.54V137.04C129.58 138.384 129.952 139.452 130.696 140.244C131.464 141.036 132.532 141.432 133.9 141.432ZM155.522 145.86C153.242 145.86 151.418 145.188 150.05 143.844C148.682 142.476 147.998 140.628 147.998 138.3V125.7H151.238V138.3C151.238 139.74 151.622 140.892 152.39 141.756C153.158 142.596 154.202 143.016 155.522 143.016C156.866 143.016 157.922 142.596 158.69 141.756C159.482 140.892 159.878 139.74 159.878 138.3V125.7H163.118V138.3C163.118 140.628 162.422 142.476 161.03 143.844C159.638 145.188 157.802 145.86 155.522 145.86ZM169.656 145.5V125.7H172.896V129.48H172.932C173.1 128.16 173.64 127.14 174.552 126.42C175.464 125.7 176.676 125.34 178.188 125.34C180.18 125.34 181.764 125.952 182.94 127.176C184.116 128.4 184.704 130.068 184.704 132.18V145.5H181.464V132.756C181.464 131.244 181.08 130.092 180.312 129.3C179.568 128.484 178.548 128.076 177.252 128.076C175.908 128.076 174.84 128.496 174.048 129.336C173.28 130.176 172.896 131.364 172.896 132.9V145.5H169.656ZM197.002 145.86C194.962 145.86 193.342 145.296 192.142 144.168C190.942 143.016 190.342 141.516 190.342 139.668C190.342 138.444 190.618 137.376 191.17 136.464C191.722 135.552 192.49 134.844 193.474 134.34C194.458 133.812 195.586 133.548 196.858 133.548H202.978V132C202.978 129.432 201.574 128.148 198.766 128.148C197.518 128.148 196.51 128.376 195.742 128.832C194.974 129.288 194.566 129.924 194.518 130.74H191.278C191.398 129.18 192.118 127.896 193.438 126.888C194.782 125.856 196.558 125.34 198.766 125.34C201.166 125.34 203.002 125.916 204.274 127.068C205.57 128.22 206.218 129.828 206.218 131.892V145.5H203.014V141.9H202.942C202.75 143.124 202.138 144.096 201.106 144.816C200.074 145.512 198.706 145.86 197.002 145.86ZM197.794 143.124C199.378 143.124 200.638 142.74 201.574 141.972C202.51 141.204 202.978 140.16 202.978 138.84V136.068H197.218C196.162 136.068 195.298 136.392 194.626 137.04C193.978 137.664 193.654 138.504 193.654 139.56C193.654 140.664 194.014 141.54 194.734 142.188C195.478 142.812 196.498 143.124 197.794 143.124ZM242.046 145.86C239.502 145.86 237.474 145.188 235.962 143.844C234.45 142.5 233.694 140.652 233.694 138.3H236.934C236.934 139.764 237.402 140.916 238.338 141.756C239.274 142.572 240.51 142.98 242.046 142.98C243.534 142.98 244.722 142.548 245.61 141.684C246.498 140.82 246.942 139.692 246.942 138.3C246.942 137.244 246.654 136.332 246.078 135.564C245.526 134.772 244.722 134.232 243.666 133.944L239.67 132.828C238.014 132.348 236.706 131.496 235.746 130.272C234.81 129.024 234.342 127.56 234.342 125.88C234.342 124.488 234.654 123.264 235.278 122.208C235.902 121.152 236.778 120.336 237.906 119.76C239.034 119.16 240.33 118.86 241.794 118.86C243.282 118.86 244.59 119.16 245.718 119.76C246.87 120.336 247.77 121.152 248.418 122.208C249.066 123.24 249.39 124.44 249.39 125.808H246.15C246.15 124.608 245.742 123.636 244.926 122.892C244.11 122.124 243.066 121.74 241.794 121.74C240.522 121.74 239.49 122.124 238.698 122.892C237.906 123.636 237.51 124.608 237.51 125.808C237.51 126.768 237.762 127.596 238.266 128.292C238.794 128.964 239.526 129.432 240.462 129.696L244.566 130.848C246.318 131.328 247.674 132.24 248.634 133.584C249.618 134.904 250.11 136.476 250.11 138.3C250.11 140.604 249.378 142.44 247.914 143.808C246.45 145.176 244.494 145.86 242.046 145.86ZM277.369 145.5V142.512L286.117 133.152C287.389 131.808 288.289 130.608 288.817 129.552C289.345 128.496 289.609 127.464 289.609 126.456C289.609 125.016 289.189 123.876 288.349 123.036C287.533 122.172 286.417 121.74 285.001 121.74C283.537 121.74 282.373 122.184 281.509 123.072C280.669 123.936 280.249 125.112 280.249 126.6H277.009C277.081 124.224 277.837 122.34 279.277 120.948C280.717 119.556 282.625 118.86 285.001 118.86C287.425 118.86 289.345 119.544 290.761 120.912C292.201 122.28 292.921 124.14 292.921 126.492C292.921 127.74 292.573 129.06 291.877 130.452C291.205 131.844 290.041 133.404 288.385 135.132L281.293 142.548H293.245V145.5H277.369ZM306.659 145.86C305.771 145.86 305.051 145.596 304.499 145.068C303.971 144.54 303.707 143.856 303.707 143.016C303.707 142.128 303.971 141.408 304.499 140.856C305.051 140.304 305.771 140.028 306.659 140.028C307.547 140.028 308.255 140.304 308.783 140.856C309.335 141.408 309.611 142.128 309.611 143.016C309.611 143.856 309.335 144.54 308.783 145.068C308.255 145.596 307.547 145.86 306.659 145.86ZM320.685 145.5V142.548H327.813V122.028L320.685 127.356V123.648L326.625 119.22H331.053V142.548H336.885V145.5H320.685Z" fill="#3E0080" style="fill:#3E0080;fill:color(display-p3 0.2426 0.0000 0.5020);fill-opacity:1;"/>
<rect x="356" y="117.5" width="68" height="30" rx="15" fill="#A900F4" style="fill:#A900F4;fill:color(display-p3 0.6628 0.0000 0.9553);fill-opacity:1;"/>
<path d="M367.8 139.5V137.86H371.76V126.46L367.8 129.42V127.36L371.1 124.9H373.56V137.86H376.8V139.5H367.8ZM379.792 139.5V137.86H383.752V126.46L379.792 129.42V127.36L383.092 124.9H385.552V137.86H388.792V139.5H379.792ZM395.984 139.7C395.064 139.7 394.251 139.52 393.544 139.16C392.838 138.8 392.284 138.3 391.884 137.66C391.498 137.007 391.304 136.26 391.304 135.42C391.304 134.5 391.564 133.707 392.084 133.04C392.618 132.373 393.324 131.967 394.204 131.82V131.76C393.444 131.587 392.838 131.207 392.384 130.62C391.931 130.02 391.704 129.333 391.704 128.56C391.704 127.8 391.884 127.133 392.244 126.56C392.604 125.973 393.104 125.52 393.744 125.2C394.398 124.867 395.144 124.7 395.984 124.7C396.838 124.7 397.584 124.867 398.224 125.2C398.864 125.52 399.364 125.973 399.724 126.56C400.084 127.133 400.264 127.8 400.264 128.56C400.264 129.333 400.038 130.02 399.584 130.62C399.131 131.207 398.524 131.587 397.764 131.76V131.82C398.644 131.967 399.344 132.373 399.864 133.04C400.398 133.707 400.664 134.5 400.664 135.42C400.664 136.26 400.464 137.007 400.064 137.66C399.678 138.3 399.131 138.8 398.424 139.16C397.731 139.52 396.918 139.7 395.984 139.7ZM395.984 131.06C396.731 131.06 397.331 130.84 397.784 130.4C398.238 129.96 398.464 129.387 398.464 128.68C398.464 127.973 398.238 127.4 397.784 126.96C397.331 126.52 396.731 126.3 395.984 126.3C395.251 126.3 394.651 126.52 394.184 126.96C393.731 127.4 393.504 127.973 393.504 128.68C393.504 129.387 393.731 129.96 394.184 130.4C394.651 130.84 395.251 131.06 395.984 131.06ZM395.984 138.08C396.838 138.08 397.531 137.833 398.064 137.34C398.598 136.833 398.864 136.18 398.864 135.38C398.864 134.567 398.598 133.913 398.064 133.42C397.531 132.913 396.838 132.66 395.984 132.66C395.131 132.66 394.438 132.913 393.904 133.42C393.371 133.913 393.104 134.567 393.104 135.38C393.104 136.18 393.371 136.833 393.904 137.34C394.438 137.833 395.131 138.08 395.984 138.08ZM403.837 139.5V124.9H407.977C409.31 124.9 410.35 125.233 411.097 125.9C411.857 126.567 412.237 127.493 412.237 128.68C412.237 129.427 411.997 130.1 411.517 130.7C411.05 131.3 410.437 131.673 409.677 131.82V131.88C410.25 131.947 410.75 132.147 411.177 132.48C411.617 132.813 411.957 133.24 412.197 133.76C412.45 134.267 412.577 134.827 412.577 135.44C412.577 136.693 412.19 137.687 411.417 138.42C410.657 139.14 409.61 139.5 408.277 139.5H403.837ZM405.597 131.12H407.957C408.73 131.12 409.337 130.913 409.777 130.5C410.23 130.087 410.457 129.527 410.457 128.82C410.457 128.113 410.237 127.553 409.797 127.14C409.357 126.727 408.75 126.52 407.977 126.52H405.597V131.12ZM405.597 137.88H408.077C408.917 137.88 409.577 137.66 410.057 137.22C410.55 136.767 410.797 136.153 410.797 135.38C410.797 134.58 410.55 133.933 410.057 133.44C409.577 132.933 408.917 132.68 408.077 132.68H405.597V137.88Z" fill="white" style="fill:white;fill-opacity:1;"/>
</g>
<defs>
<linearGradient id="paint0_linear_9101_66433" x1="31.25" y1="146.75" x2="29.375" y2="146.75" gradientUnits="userSpaceOnUse">
<stop style="stop-color:black;stop-opacity:1;"/>
<stop offset="1" stop-opacity="0" style="stop-color:none;stop-opacity:0;"/>
</linearGradient>
<linearGradient id="paint1_linear_9101_66433" x1="31.375" y1="132.25" x2="32" y2="131.062" gradientUnits="userSpaceOnUse">
<stop stop-opacity="0" style="stop-color:none;stop-opacity:0;"/>
<stop offset="1" style="stop-color:black;stop-opacity:1;"/>
</linearGradient>
<linearGradient id="paint2_linear_9101_66433" x1="21.625" y1="146.687" x2="21.625" y2="130.687" gradientUnits="userSpaceOnUse">
<stop style="stop-color:black;stop-opacity:1;"/>
<stop offset="0.105" stop-opacity="0.9" style="stop-color:black;stop-opacity:0.9;"/>
<stop offset="0.903766" stop-opacity="0.04" style="stop-color:black;stop-opacity:0.04;"/>
<stop offset="1" stop-opacity="0" style="stop-color:none;stop-opacity:0;"/>
</linearGradient>
<clipPath id="clip0_9101_66433">
<rect width="699" height="176" fill="white" style="fill:white;fill-opacity:1;"/>
</clipPath>
</defs>
</svg>
